<?xml version="1.0" encoding="UTF-8"?>
<svg width="121px" height="121px" viewBox="0 0 121 121" version="1.1" xmlns="http://www.w3.org/2000/svg" xmlns:xlink="http://www.w3.org/1999/xlink" style="background: #FFFFFF;">
    <defs>
        <polygon id="path-1" points="46.16998 0.16 78.8333333 60.5 0 62"></polygon>
        <polygon id="path-3" points="39.6666667 1.16 68.8333333 58 0 58"></polygon>
    </defs>
    <g id="Page-1" stroke="none" stroke-width="1" fill="none" fill-rule="evenodd">
        <g id="bg" transform="translate(-19.000000, -19.000000)">
            <g id="Layer_x0020_1" transform="translate(14.000000, 14.000000)">
                <g id="_311370576">
                    <g id="Group" fill="#FFB300">
                        <path d="M67.1861086,19.05803 C63.7772197,15.4545191 61.9495706,15.4545191 63.6915981,19.05803 C61.9495706,15.4545191 63.7772237,8.55698786 67.1861086,5.870515 C63.7772197,8.55698786 65.6051553,15.4545191 70.6805259,19.05803 C65.6051483,15.4545191 63.7772197,15.4545191 67.1861086,19.05803 Z" id="_311378640"></path>
                        <path d="M30.5329971,100.430657 C39.8361989,109.734022 52.3230234,114.906221 65.4818271,114.906221 C78.6405377,114.906221 91.1275486,109.734045 100.430657,100.430657 C109.734115,91.1274554 114.906315,78.6405377 114.906315,65.4818271 C114.906315,52.3231166 109.734138,39.8361057 100.430657,30.5329971 C91.1275486,21.2295393 78.6406309,16.0573397 65.4818271,16.0573397 C52.3231166,16.0573397 39.8363386,21.229516 30.5329971,30.5329971 C21.2296324,39.8361057 16.0574329,52.3230234 16.0574329,65.4818271 C16.0574329,78.6404446 21.2296091,91.1273157 30.5329971,100.430657 Z" id="_311378376"></path>
                        <path d="M79.1433229,21.08086 C76.7833157,16.7178157 75.0179093,16.2447664 75.7678956,20.1763846 C75.017893,16.2447548 78.568515,10.0553421 82.5564963,8.34274764 C78.5684917,10.0553467 78.5488851,17.1909465 82.5187257,21.9853354 C78.548884,17.1909465 76.7832913,16.7178041 79.1432984,21.08086 L79.1433229,21.08086 Z" id="_311378160"></path>
                        <path d="M109.883027,79.1433229 C114.245978,76.7833157 114.719028,75.0179093 110.787412,75.7678956 C114.719042,75.017893 120.908547,78.568515 122.621142,82.5564963 C120.908543,78.5684917 113.772943,78.5488851 108.978554,82.5186342 C113.772943,78.5488856 114.245992,76.7832929 109.883029,79.1433 L109.883027,79.1433229 Z" id="_311374584"></path>
                        <path d="M104.834219,90.1695743 C109.659414,89.0191319 110.573239,87.4363437 106.581471,87.1432464 C110.573225,87.4363344 115.632838,92.4678743 116.254939,96.7632736 C115.632827,92.4678743 108.74539,90.6021763 103.086961,93.1958789 C108.74539,90.6021763 109.6594,89.0191203 104.834214,90.169551 L104.834219,90.1695743 Z" id="_311375160"></path>
                        <path d="M97.1035943,99.5134329 C102.062078,99.6511304 103.354435,98.3587735 99.5745346,97.0424926 C103.354435,98.3587781 106.93941,104.528384 106.428591,108.83836 C106.93941,104.528384 100.769604,100.943595 94.6326307,101.984373 C100.769604,100.943574 102.062054,99.6511213 97.103571,99.5134329 L97.1035943,99.5134329 Z" id="_311374776"></path>
                        <path d="M87.21811,106.538267 C91.9720516,107.954663 93.5548514,107.040836 90.2444379,104.791014 C93.5548514,107.040836 95.4208289,113.928003 93.8118326,117.958993 C95.4208382,113.928003 90.3890189,108.868576 84.1918054,108.285525 C90.3890189,108.868585 91.9720749,107.954665 87.2181333,106.538272 L87.21811,106.538267 Z" id="_311375304"></path>
                        <path d="M75.8514214,110.76509 C80.0767773,113.363566 81.8421837,112.890508 79.2268487,109.860615 C81.8421837,112.890505 81.8619766,120.026016 79.2646193,123.503202 C81.8619777,120.026017 78.3111881,113.836604 72.4760186,111.669472 C78.311209,113.836601 80.0767785,113.363555 75.8514459,110.765088 L75.8514214,110.76509 Z" id="_311374344"></path>
                        <path d="M63.7777786,111.905857 C67.1866674,115.509368 69.0142234,115.509368 67.2721959,111.905857 C69.0142234,115.509368 67.1866621,122.406899 63.7777786,125.093372 C67.1866674,122.406899 65.3587319,115.509368 60.2832681,111.905857 C65.3587389,115.509368 67.1866674,115.509368 63.7777786,111.905857 Z" id="_311374104"></path>
                        <path d="M51.8205643,109.883027 C54.1806646,114.246071 55.9459779,114.719121 55.1959916,110.787503 C55.9459942,114.719132 52.3954653,120.908545 48.407484,122.62114 C52.3954886,120.90854 52.415002,113.772941 48.4452546,108.978645 C52.4150032,113.772941 54.180689,114.246083 51.8205887,109.883029 L51.8205643,109.883027 Z" id="_311374224"></path>
                        <path d="M40.79408,104.834219 C41.9445224,109.659414 43.5273106,110.573239 43.8204079,106.581471 C43.5273199,110.573225 38.49578,115.632838 34.2003807,116.254939 C38.49578,115.632827 40.361478,108.745483 37.7678686,103.087054 C40.361478,108.745483 41.944534,109.6594 40.7941033,104.834216 L40.79408,104.834219 Z" id="_311373912"></path>
                        <path d="M31.4502214,97.1035943 C31.3126157,102.062078 32.6048808,103.354435 33.9211617,99.5745346 C32.6048762,103.354435 26.4352703,106.93934 22.1252941,106.428522 C26.4352703,106.93934 30.0200594,100.769534 28.9792811,94.632654 C30.0200804,100.769534 31.3126261,102.062078 31.4502214,97.1035943 Z" id="_311373072"></path>
                        <path d="M24.42562,87.21811 C23.0093177,91.9719817 23.9231446,93.5547583 26.1728729,90.2443447 C23.9231422,93.5547583 17.0358846,95.4207357 13.0048946,93.8118326 C17.0358846,95.4207474 22.0953115,90.3890189 22.6783625,84.1918054 C22.0953021,90.3890189 23.009313,91.9719817 24.4256153,87.2181333 L24.42562,87.21811 Z" id="_311373480"></path>
                        <path d="M20.1987971,75.8514214 C17.600321,80.0767773 18.0733796,81.8421837 21.1032725,79.2267556 C18.0733819,81.8421837 10.9378706,81.8619766 7.46068479,79.2646177 C10.9378706,81.8619761 17.1272834,78.3111864 19.2944149,72.476017 C17.1272857,78.3112074 17.6003326,80.0767768 20.1987995,75.8514442 L20.1987971,75.8514214 Z" id="_311373408"></path>
                        <path d="M19.05803,63.7777786 C15.4545191,67.1865743 15.4545191,69.0142234 19.05803,67.2721959 C15.4545191,69.0142234 8.55698786,67.1865703 5.870515,63.7777786 C8.55698786,67.1865743 15.4545191,65.3587319 19.05803,60.2832681 C15.4545191,65.3587389 15.4545191,67.1865743 19.05803,63.7777786 Z" id="_311373648"></path>
                        <path d="M21.08086,51.8205643 C16.7178157,54.1805714 16.2447664,55.9459779 20.1763846,55.1959916 C16.2447548,55.9459942 10.0553421,52.3954653 8.34274764,48.407484 C10.0553467,52.3954886 17.1909465,52.415002 21.9853354,48.4452546 C17.1909465,52.4150032 16.7178041,54.1805959 21.08086,51.8205887 L21.08086,51.8205643 Z" id="_311373288"></path>
                        <path d="M26.1296686,40.79408 C21.3044727,41.9445224 20.3906481,43.5273106 24.3824157,43.8204079 C20.3906621,43.5273199 15.331049,38.49578 14.7089478,34.2003807 C15.3310606,38.49578 22.2184044,40.361478 27.8769261,37.7678686 C22.2184044,40.361478 21.3044867,41.944534 26.1296732,40.7941033 L26.1296686,40.79408 Z" id="_311372928"></path>
                        <path d="M33.86006,31.4502214 C28.9015767,31.3126157 27.6092196,32.6048808 31.3891197,33.9211617 C27.6092196,32.6048762 24.024314,26.4352703 24.5351327,22.1252941 C24.024314,26.4352703 30.1941201,30.0200594 36.3310934,28.9792811 C30.1941201,30.0200804 28.9015767,31.3126261 33.86006,31.4502214 Z" id="_311372760"></path>
                        <path d="M43.7457771,24.42562 C38.9918356,23.0093177 37.4090357,23.9231446 40.7194493,26.1728729 C37.4090357,23.9231422 35.5430583,17.0358846 37.1519614,13.0048946 C35.5430466,17.0358846 40.5747751,22.0953115 46.7719886,22.6783625 C40.5747751,22.0953021 38.9918123,23.009313 43.7457539,24.4256153 L43.7457771,24.42562 Z" id="_311372328"></path>
                        <path d="M55.1124657,20.1987971 C50.8870167,17.600321 49.1217034,18.0733796 51.7370384,21.1032725 C49.1217034,18.0733819 49.1018174,10.9378706 51.6992678,7.46068479 C49.1018163,10.9378706 52.6526991,17.1272834 58.4877754,19.2944149 C52.6526781,17.1272857 50.8870156,17.6003326 55.1124413,20.1987995 L55.1124657,20.1987971 Z" id="_311372880"></path>
                    </g>
                    <g id="Group" transform="translate(54.571429, 3.000000)" fill="#FFA000">
                        <path d="M10.910515,4.72862186 C11.4173914,3.9986054 11.9892676,3.36328961 12.61468,2.87044049 C11.6010179,3.66939663 11.0503201,4.84064943 10.910515,6.18700149 L10.910515,4.72861953 L10.910515,4.72862186 Z M10.910515,7.628974 C11.1857265,10.543088 13.0617843,13.894205 16.1090973,16.05803 C13.0616027,13.8942003 11.1857289,13.0305146 10.910515,13.4651657 L10.910515,7.628974 Z" id="_311372808"></path>
                        <path d="M10.9103986,111.906221 C24.0692023,111.906221 36.5558871,106.734138 45.8589957,97.4307503 C55.1622906,88.1276417 60.3344669,75.640724 60.3344669,62.4819203 C60.3344669,49.3232097 55.1622906,36.8361989 45.8589957,27.5330903 C36.555794,18.2297256 24.0691557,13.057363 10.9103986,13.057363 L10.9103986,111.906221 Z" id="_311372160"></path>
                        <path d="M24.5718943,18.08086 C22.211794,13.7178157 20.4464807,13.2447664 21.196467,17.1762915 C20.4464644,13.2447548 23.9969933,7.05524893 27.9849746,5.34274764 C23.99697,7.05525591 23.9773634,14.1910396 27.947204,18.9853354 C23.9773623,14.1910396 22.2117696,13.7178041 24.5718698,18.08086 L24.5718943,18.08086 Z" id="_311372040"></path>
                        <path d="M35.5981457,23.1294357 C34.4478873,18.304333 32.8651014,17.3904153 32.571911,21.3822736 C32.8650921,17.3904269 37.896632,12.3309069 42.1920313,11.7088989 C37.896632,12.3309209 36.0308409,19.2182624 38.6244503,24.8767841 C36.0308409,19.2182624 34.447878,18.3043446 35.5981224,23.129438 L35.5981457,23.1294357 Z" id="_311371800"></path>
                        <path d="M55.3115986,76.1433229 C59.6746429,73.7833157 60.1476921,72.0179093 56.2160739,72.7679887 C60.1477038,72.0178953 66.3371165,75.568515 68.0497109,79.5564963 C66.3371118,75.5684917 59.2014189,75.5488851 54.4071232,79.5186342 C59.2014189,75.5488856 59.6746545,73.7832929 55.3115986,76.1433 L55.3115986,76.1433229 Z" id="_311371296"></path>
                        <path d="M50.26279,87.1695743 C55.0878927,86.0192227 56.0017173,84.4363437 52.0099521,84.1432464 C56.0017056,84.4363344 61.0613188,89.4679674 61.6833268,93.7632736 C61.0613048,89.4679674 54.1739634,87.6021763 48.5153485,90.1958789 C54.1739634,87.6021763 55.0878811,86.0192134 50.2627853,87.169551 L50.26279,87.1695743 Z" id="_311371056"></path>
                        <path d="M42.5323986,96.5136657 C47.4908819,96.6512715 48.783239,95.3589132 45.0032457,94.0425391 C48.783239,95.3589155 52.3681213,101.528524 51.8573026,105.838593 C52.3681213,101.528547 46.1983151,97.9438277 40.0612487,98.9845361 C46.1983151,97.94383 47.4908586,96.6512843 42.5323753,96.513689 L42.5323986,96.5136657 Z" id="_311370000"></path>
                        <path d="M32.6466814,103.538267 C37.4005531,104.954663 38.9833297,104.040743 35.6729161,101.790921 C38.9833297,104.040743 40.8493071,110.928003 39.2404971,114.958806 C40.8493211,110.928003 35.8175903,105.868483 29.6203769,105.285432 C35.8175903,105.868492 37.4005531,104.954665 32.6467047,103.538269 L32.6466814,103.538267 Z" id="_311370432"></path>
                        <path d="M21.2799929,107.764857 C25.5054419,110.363333 27.2708483,109.890459 24.655327,106.860566 C27.2708483,109.890456 27.2906411,117.025781 24.6931891,120.503153 C27.2906407,117.025781 23.739667,110.836555 17.9046815,108.66933 C23.7396857,110.836553 25.5054414,110.363319 21.2800157,107.764855 L21.2799929,107.764857 Z" id="_311370168"></path>
                        <path d="M10.9103986,110.524913 C13.1654454,112.387679 14.1233614,111.84844 12.7008325,108.905913 C14.1233707,111.848436 13.1654477,116.986522 10.9103986,120.235507 L10.9103986,118.776942 C10.9584368,118.314252 10.957245,117.830845 10.9103986,117.334969 L10.9103986,111.498777 C10.957245,111.424795 10.9584368,111.313958 10.9103986,111.164709 L10.9103986,110.524901 L10.9103986,110.524913 Z" id="_311370048"></path>
                    </g>
                </g>
            </g>
            <rect id="Rectangle" x="0" y="0" width="158.963654" height="158.963654"></rect>
        </g>
        <g id="removed-slice" transform="translate(62.000000, 1.000000)">
            <mask id="mask-2" fill="white">
                <use xlink:href="#path-1"></use>
            </mask>
            <use id="Mask" stroke="#FFFFFF" xlink:href="#path-1"></use>
            <g id="reshot-icon-sun-S3A8P7LHKW(1)" mask="url(#mask-2)">
                <g transform="translate(-79.666667, -20.200000)">
                    <g id="Layer_x0020_1" stroke-width="1" fill-rule="evenodd" transform="translate(14.000000, 14.000000)">
                        <g id="_311370576">
                            <g id="Group" fill="#FFB300">
                                <path d="M67.3521333,18.936344 C63.9362733,15.3460976 62.1048867,15.3460976 63.8504767,18.936344 C62.1048867,15.3460976 63.9362773,8.473956 67.3521333,5.797372 C63.9362733,8.473956 65.767947,15.3460976 70.8536967,18.936344 C65.76794,15.3460976 63.9362733,15.3460976 67.3521333,18.936344 Z" id="_311378640"></path>
                                <path d="M30.6240667,100.00944 C39.9462933,109.278559 52.4586533,114.43172 65.6443667,114.43172 C78.8299867,114.43172 91.3425333,109.278582 100.664667,100.00944 C109.98715,90.7404832 115.169927,78.2995296 115.169927,65.189256 C115.169927,52.0789824 109.987173,39.637936 100.664667,30.369072 C91.3425333,21.09986 78.83008,15.9466992 65.6443667,15.9466992 C52.4587467,15.9466992 39.9464333,21.0998368 30.6240667,30.369072 C21.3016767,39.637936 16.1189,52.0788896 16.1189,65.189256 C16.1189,78.2994368 21.3016533,90.740344 30.6240667,100.00944 Z" id="_311378376"></path>
                                <path d="M79.3338,20.951728 C76.9689667,16.604744 75.19995,16.133436 75.95147,20.050582 C75.1999337,16.1334244 78.7578167,9.9667948 82.7539533,8.2605044 C78.7577933,9.96679944 78.7381467,17.0761332 82.7161055,21.852874 C78.7381455,17.0761332 76.9689422,16.6047324 79.3337755,20.951728 L79.3338,20.951728 Z" id="_311378160"></path>
                                <path d="M90.3826,25.981952 C89.229896,21.1745176 87.6438733,20.2640568 87.3500833,24.2411307 C87.643864,20.2640707 92.6856933,15.2230819 96.9898767,14.6032707 C92.6856933,15.2230935 90.8160867,22.0850851 93.4150933,27.7226851 C90.8160867,22.0850851 89.2298867,21.1745315 90.3825767,25.9819543 L90.3826,25.981952 Z" id="_311377968"></path>
                                <path d="M110.136367,78.800464 C114.50824,76.449144 114.982257,74.690236 111.042601,75.4374616 C114.982271,74.6902198 121.184434,78.227772 122.900531,82.2010736 C121.184429,78.2277488 114.034237,78.2082144 109.230044,82.1633509 C114.034237,78.2082149 114.508254,76.4491213 110.136369,78.8004413 L110.136367,78.800464 Z" id="_311374584"></path>
                                <path d="M105.077233,89.786128 C109.912297,88.6399204 110.82799,87.0629584 106.828059,86.77094 C110.827976,87.0629491 115.897936,92.075968 116.521309,96.355556 C115.897924,92.075968 108.996403,90.2171376 103.326403,92.8012928 C108.996403,90.2171376 109.912283,88.6399088 105.077229,89.7861048 L105.077233,89.786128 Z" id="_311375160"></path>
                                <path d="M97.3308,99.095592 C102.299423,99.2327826 103.594423,97.9451829 99.8067933,96.6337472 C103.594423,97.9451875 107.18673,104.092083 106.674867,108.386194 C107.18673,104.092083 101.004307,100.52049 94.8547833,101.557437 C101.004307,100.520469 102.2994,99.2327736 97.3307767,99.095592 L97.3308,99.095592 Z" id="_311374776"></path>
                                <path d="M87.4251,106.094568 C92.1887633,107.50575 93.7748,106.595287 90.4576167,104.353747 C93.7748,106.595287 95.6445933,113.457102 94.0323067,117.473254 C95.6446027,113.457102 90.6024933,108.416299 84.3926067,107.835394 C90.6024933,108.416308 92.1887867,107.505752 87.4251233,106.094573 L87.4251,106.094568 Z" id="_311375304"></path>
                                <path d="M76.0351667,110.305832 C80.2691633,112.894743 82.03818,112.423426 79.4174967,109.404686 C82.03818,112.423424 82.0580133,119.532669 79.4553445,122.997056 C82.0580145,119.532669 78.4999635,113.36604 72.6528612,111.206885 C78.4999845,113.366037 80.2691645,112.894732 76.0351912,110.30583 L76.0351667,110.305832 Z" id="_311374344"></path>
                                <path d="M63.9368333,111.4424 C67.3526933,115.032646 69.1839867,115.032646 67.4383967,111.4424 C69.1839867,115.032646 67.352688,121.904788 63.9368333,124.581372 C67.3526933,121.904788 65.5210197,115.032646 60.4351767,111.4424 C65.5210267,115.032646 67.3526933,115.032646 63.9368333,111.4424 Z" id="_311374104"></path>
                                <path d="M51.9551667,109.427016 C54.3200933,113.774 56.0890167,114.245308 55.3374967,110.328162 C56.089033,114.24532 52.5312433,120.411949 48.5351067,122.11824 C52.5312667,120.411945 52.55082,113.302611 48.5729545,108.525963 C52.5508212,113.302611 54.3201178,113.774012 51.9551912,109.427018 L51.9551667,109.427016 Z" id="_311374224"></path>
                                <path d="M40.9061333,104.396792 C42.0589283,109.204226 43.6449533,110.114687 43.93865,106.137613 C43.6449627,110.114673 38.6031333,115.155662 34.29895,115.775473 C38.6031333,115.15565 40.4726467,108.293659 37.8737333,102.656059 C40.4726467,108.293659 42.05894,109.204212 40.9061567,104.39679 L40.9061333,104.396792 Z" id="_311373912"></path>
                                <path d="M31.5431667,96.694624 C31.4052795,101.634855 32.7001873,102.922455 34.01916,99.1564688 C32.7001827,102.922455 26.51796,106.494165 22.19917,105.985226 C26.51796,106.494165 30.11008,100.34707 29.0671733,94.2327792 C30.110101,100.34707 31.40529,101.634855 31.5431667,96.694624 Z" id="_311373072"></path>
                                <path d="M24.5042,86.845528 C23.0850013,91.5819008 24.000697,93.1588512 26.255026,89.8606232 C24.0006947,93.1588512 17.0993527,95.01796 13.0601193,93.4149792 C17.0993527,95.0179716 22.169126,90.0047648 22.7533693,83.8303632 C22.1691167,90.0047648 23.0849967,91.5819008 24.5041953,86.8455512 L24.5042,86.845528 Z" id="_311373480"></path>
                                <path d="M20.2687333,75.52068 C17.6649433,79.7304824 18.1389693,81.4893904 21.1750583,78.8835896 C18.1389717,81.4893904 10.9888683,81.5091104 7.50457167,78.9213123 C10.9888683,81.5091099 17.1909383,77.9713907 19.3625017,72.1577003 C17.1909407,77.9714115 17.664955,79.7304819 20.2687357,75.5207027 L20.2687333,75.52068 Z" id="_311373408"></path>
                                <path d="M19.1256333,63.49148 C15.5147533,66.887728 15.5147533,68.7086496 19.1256333,66.9730344 C15.5147533,68.7086496 8.60311667,66.8877241 5.91115,63.49148 C8.60311667,66.887728 15.5147533,65.0666138 19.1256333,60.0098328 C15.5147533,65.0666208 15.5147533,66.887728 19.1256333,63.49148 Z" id="_311373648"></path>
                                <path d="M21.1526,51.57828 C16.7806333,53.9296 16.3066167,55.688508 20.246275,54.9412824 C16.306605,55.6885242 10.104535,52.1510648 8.38843833,48.1777632 C10.1045397,52.151088 17.2547317,52.1705296 22.058925,48.2153948 C17.2547317,52.1705308 16.7806217,53.9296244 21.1526,51.5783044 L21.1526,51.57828 Z" id="_311373288"></path>
                                <path d="M26.2117333,40.592384 C21.37667,41.7385916 20.4609767,43.3155536 24.4609073,43.607572 C20.4609907,43.3155629 15.3910307,38.302544 14.7676573,34.022956 C15.3910423,38.302544 22.2924707,40.1613744 27.962564,37.577312 C22.2924707,40.1613744 21.376684,41.7386032 26.211738,40.5924072 L26.2117333,40.592384 Z" id="_311372928"></path>
                                <path d="M33.9579333,31.28292 C28.98931,31.1458208 27.69431,32.4333291 31.48194,33.7447648 C27.69431,32.4333245 24.1020733,26.2864288 24.6139367,21.9923176 C24.1020733,26.2864288 30.2844967,29.8580224 36.43402,28.8210752 C30.2844967,29.8580433 28.98931,31.1458312 33.9579333,31.28292 Z" id="_311372760"></path>
                                <path d="M43.8638667,24.284176 C39.1002033,22.873087 37.5141667,23.7835502 40.83135,26.0249973 C37.5141667,23.7835478 35.6443733,16.9216421 37.2565667,12.9054901 C35.6443617,16.9216421 40.68638,21.9624453 46.8962667,22.5433501 C40.68638,21.962436 39.10018,22.8730824 43.8638433,24.2841714 L43.8638667,24.284176 Z" id="_311372328"></path>
                                <path d="M55.2538,20.072912 C51.01971,17.4840008 49.2507867,17.9553181 51.87147,20.974058 C49.2507867,17.9553204 49.23086,10.8460748 51.8336222,7.3816884 C49.2308588,10.8460748 52.7890032,17.0127044 58.6360122,19.1718588 C52.7889822,17.0127067 51.0197088,17.4840124 55.2537755,20.0729143 L55.2538,20.072912 Z" id="_311372880"></path>
                            </g>
                            <g id="Group" transform="translate(54.666667, 3.240000)">
                                <path d="M10.9778167,4.4086392 C11.4857297,3.68130992 12.0587753,3.04833272 12.6854667,2.55729776 C11.6697317,3.35331296 11.1179077,4.5202544 10.9778167,5.86165056 L10.9778167,4.40863688 L10.9778167,4.4086392 Z M10.9778167,7.2983152 C11.253591,10.2017024 13.1334853,13.540484 16.18703,15.696344 C13.1333033,13.5404794 11.2535933,12.6799728 10.9778167,13.113024 L10.9778167,7.2983152 Z" id="_311372808" fill="#FFA000"></path>
                                <path d="M10.9777,111.19172 C24.1634133,111.19172 36.6756333,106.038675 45.9977667,96.7695328 C55.3200867,87.5006688 60.50284,75.0597152 60.50284,61.9493488 C60.50284,48.8390752 55.3200867,36.3980288 45.9977667,27.1291648 C36.67554,17.8600456 24.1633667,12.7067224 10.9777,12.7067224 L10.9777,111.19172 Z" id="_311372160" fill="#FFFFFF"></path>
                                <path d="M24.6671333,17.711728 C22.3022067,13.364744 20.5332833,12.893436 21.2848033,16.8104892 C20.533267,12.8934244 24.0910567,6.726702 28.0871933,5.0205044 C24.0910333,6.72670896 24.0713867,13.836226 28.0493455,18.612874 C24.0713855,13.836226 22.3021822,13.3647324 24.6671088,17.711728 L24.6671333,17.711728 Z" id="_311372040" fill="#FFA000"></path>
                                <path d="M35.7159333,22.74172 C34.5633227,17.9343784 32.9773,17.0238248 32.68351,21.0009892 C32.9772907,17.0238364 38.01912,11.9829404 42.3233033,11.363222 C38.01912,11.9829543 36.1495133,18.8449436 38.7484267,24.4826364 C36.1495133,18.8449436 34.5633133,17.93439 35.71591,22.7417223 L35.7159333,22.74172 Z" id="_311371800" fill="#FFA000"></path>
                                <path d="M55.4697,75.560464 C59.8416667,73.209144 60.3156833,71.450236 56.376025,72.1975544 C60.315695,71.4502221 66.517765,74.987772 68.2338617,78.9610736 C66.5177603,74.9877488 59.367475,74.9682144 54.563375,78.9233509 C59.367475,74.9682149 59.8416783,73.2091213 55.4697,75.5604413 L55.4697,75.560464 Z" id="_311371296" fill="#FFA000"></path>
                                <path d="M50.4105667,86.546128 C55.2455367,85.4000109 56.16123,83.8229584 52.1613017,83.53094 C56.1612183,83.8229491 61.2311783,88.8360608 61.8544583,93.115556 C61.2311643,88.8360608 54.3297383,86.9771376 48.6595517,89.5612928 C54.3297383,86.9771376 55.245525,85.4000016 50.410562,86.5461048 L50.4105667,86.546128 Z" id="_311371056" fill="#FFA000"></path>
                                <path d="M42.6643667,95.855824 C47.63299,95.9929232 48.92799,94.7053221 45.1402667,93.3937936 C48.92799,94.7053244 52.5202033,100.852222 52.00834,105.146426 C52.5202033,100.852246 46.33778,97.2807216 40.1881633,98.3175992 C46.33778,97.2807239 47.6329667,95.992936 42.6643433,95.8558472 L42.6643667,95.855824 Z" id="_311370000" fill="#FFA000"></path>
                                <path d="M32.7584333,102.854568 C37.5220267,104.26575 39.10804,103.355194 35.7908567,101.113654 C39.10804,103.355194 40.9778333,110.217102 39.3657333,114.233068 C40.9778473,110.217102 35.9358267,105.176206 29.72594,104.595301 C35.9358267,105.176215 37.5220267,104.265752 32.7584567,102.85457 L32.7584333,102.854568 Z" id="_311370432" fill="#FFA000"></path>
                                <path d="M21.3685,107.0656 C25.60259,109.654511 27.3716067,109.183377 24.7507367,106.164637 C27.3716067,109.183375 27.39144,116.292435 24.7886762,119.757007 C27.3914395,116.292435 23.8332042,110.125991 17.9862862,107.966744 C23.8332229,110.125989 25.6025895,109.654497 21.3685229,107.065598 L21.3685,107.0656 Z" id="_311370168" fill="#FFA000"></path>
                                <path d="M10.9777,109.815496 C13.2373583,111.671406 14.1972333,111.134152 12.7717953,108.202456 C14.1972427,111.134147 13.2373607,116.25332 10.9777,119.490346 L10.9777,118.037149 C11.0258364,117.576163 11.0246422,117.094535 10.9777,116.600484 L10.9777,110.785776 C11.0246422,110.712065 11.0258364,110.601637 10.9777,110.452937 L10.9777,109.815484 L10.9777,109.815496 Z" id="_311370048" fill="#FFA000"></path>
                            </g>
                        </g>
                    </g>
                    <rect id="Rectangle" x="0" y="0" width="159.288733" height="158.378512"></rect>
                </g>
            </g>
        </g>
        <g id="slice" transform="translate(72.000000, 0.000000)">
            <mask id="mask-4" fill="white">
                <use xlink:href="#path-3"></use>
            </mask>
            <use id="Mask" stroke="#FFFFFF" xlink:href="#path-3"></use>
            <g id="reshot-icon-sun-S3A8P7LHKW(1)" mask="url(#mask-4)">
                <g transform="translate(-81.666667, -23.200000)">
                    <g id="Layer_x0020_1" stroke-width="1" fill-rule="evenodd">
                        <g id="_311370576">
                            <g id="Group" fill="#FFB300">
                                <path d="M81.3521333,32.936344 C77.9362733,29.3460976 76.1048867,29.3460976 77.8504767,32.936344 C76.1048867,29.3460976 77.9362773,22.473956 81.3521333,19.797372 C77.9362733,22.473956 79.767947,29.3460976 84.8536967,32.936344 C79.76794,29.3460976 77.9362733,29.3460976 81.3521333,32.936344 Z" id="_311378640"></path>
                                <path d="M44.6240667,114.00944 C53.9462933,123.278559 66.4586533,128.43172 79.6443667,128.43172 C92.8299867,128.43172 105.342533,123.278582 114.664667,114.00944 C123.98715,104.740483 129.169927,92.2995296 129.169927,79.189256 C129.169927,66.0789824 123.987173,53.637936 114.664667,44.369072 C105.342533,35.09986 92.83008,29.9466992 79.6443667,29.9466992 C66.4587467,29.9466992 53.9464333,35.0998368 44.6240667,44.369072 C35.3016767,53.637936 30.1189,66.0788896 30.1189,79.189256 C30.1189,92.2994368 35.3016533,104.740344 44.6240667,114.00944 Z" id="_311378376"></path>
                                <path d="M93.3338,34.951728 C90.9689667,30.604744 89.19995,30.133436 89.95147,34.050582 C89.1999337,30.1334244 92.7578167,23.9667948 96.7539533,22.2605044 C92.7577933,23.9667994 92.7381467,31.0761332 96.7161055,35.852874 C92.7381455,31.0761332 90.9689422,30.6047324 93.3337755,34.951728 L93.3338,34.951728 Z" id="_311378160"></path>
                                <path d="M104.3826,39.981952 C103.229896,35.1745176 101.643873,34.2640568 101.350083,38.2411307 C101.643864,34.2640707 106.685693,29.2230819 110.989877,28.6032707 C106.685693,29.2230935 104.816087,36.0850851 107.415093,41.7226851 C104.816087,36.0850851 103.229887,35.1745315 104.382577,39.9819543 L104.3826,39.981952 Z" id="_311377968"></path>
                                <path d="M113.745567,47.683888 C113.883546,42.7436568 112.588546,41.4560568 111.269573,45.2220432 C112.588551,41.4560568 118.770773,37.8843472 123.089657,38.3932856 C118.770797,37.8843472 115.178747,44.0314424 116.221583,50.1458256 C115.178749,44.0314424 113.88356,42.7436568 113.74559,47.683888 L113.745567,47.683888 Z" id="_311376480"></path>
                                <path d="M120.784767,57.532984 C122.203965,52.7966112 121.28827,51.2196608 119.033941,54.5178888 C121.288272,51.2196608 128.189614,49.360552 132.228754,50.9635328 C128.189614,49.3605404 123.119747,54.3737472 122.535504,60.5481488 C123.119757,54.3737472 122.203968,52.7966112 120.784769,57.5329608 L120.784767,57.532984 Z" id="_311375616"></path>
                                <path d="M125.020233,68.858064 C127.624023,64.6482616 127.150088,62.8894464 124.113999,65.4951544 C127.150086,62.8894464 134.300189,62.8696336 137.784486,65.4574317 C134.300189,62.8696341 128.098119,66.4073533 125.926556,72.2210437 C128.098117,66.4073325 127.624009,64.6482621 125.020231,68.8580413 L125.020233,68.858064 Z" id="_311375832"></path>
                                <path d="M126.163333,80.887032 C129.774307,77.490784 129.774307,75.6698624 126.163333,77.4054776 C129.774307,75.6698624 136.68585,77.4907879 139.377817,80.887032 C136.68585,77.490784 129.774307,79.3118982 126.163333,84.3686792 C129.774307,79.3118912 129.774307,77.490784 126.163333,80.887032 Z" id="_311374920"></path>
                                <path d="M124.136367,92.800464 C128.50824,90.449144 128.982257,88.690236 125.042601,89.4374616 C128.982271,88.6902198 135.184434,92.227772 136.900531,96.2010736 C135.184429,92.2277488 128.034237,92.2082144 123.230044,96.1633509 C128.034237,92.2082149 128.508254,90.4491213 124.136369,92.8004413 L124.136367,92.800464 Z" id="_311374584"></path>
                                <path d="M119.077233,103.786128 C123.912297,102.63992 124.82799,101.062958 120.828059,100.77094 C124.827976,101.062949 129.897936,106.075968 130.521309,110.355556 C129.897924,106.075968 122.996403,104.217138 117.326403,106.801293 C122.996403,104.217138 123.912283,102.639909 119.077229,103.786105 L119.077233,103.786128 Z" id="_311375160"></path>
                                <path d="M111.3308,113.095592 C116.299423,113.232783 117.594423,111.945183 113.806793,110.633747 C117.594423,111.945188 121.18673,118.092083 120.674867,122.386194 C121.18673,118.092083 115.004307,114.52049 108.854783,115.557437 C115.004307,114.520469 116.2994,113.232774 111.330777,113.095592 L111.3308,113.095592 Z" id="_311374776"></path>
                                <path d="M101.4251,120.094568 C106.188763,121.50575 107.7748,120.595287 104.457617,118.353747 C107.7748,120.595287 109.644593,127.457102 108.032307,131.473254 C109.644603,127.457102 104.602493,122.416299 98.3926067,121.835394 C104.602493,122.416308 106.188787,121.505752 101.425123,120.094573 L101.4251,120.094568 Z" id="_311375304"></path>
                                <path d="M90.0351667,124.305832 C94.2691633,126.894743 96.03818,126.423426 93.4174967,123.404686 C96.03818,126.423424 96.0580133,133.532669 93.4553445,136.997056 C96.0580145,133.532669 92.4999635,127.36604 86.6528612,125.206885 C92.4999845,127.366037 94.2691645,126.894732 90.0351912,124.30583 L90.0351667,124.305832 Z" id="_311374344"></path>
                                <path d="M77.9368333,125.4424 C81.3526933,129.032646 83.1839867,129.032646 81.4383967,125.4424 C83.1839867,129.032646 81.352688,135.904788 77.9368333,138.581372 C81.3526933,135.904788 79.5210197,129.032646 74.4351767,125.4424 C79.5210267,129.032646 81.3526933,129.032646 77.9368333,125.4424 Z" id="_311374104"></path>
                                <path d="M65.9551667,123.427016 C68.3200933,127.774 70.0890167,128.245308 69.3374967,124.328162 C70.089033,128.24532 66.5312433,134.411949 62.5351067,136.11824 C66.5312667,134.411945 66.55082,127.302611 62.5729545,122.525963 C66.5508212,127.302611 68.3201178,127.774012 65.9551912,123.427018 L65.9551667,123.427016 Z" id="_311374224"></path>
                                <path d="M54.9061333,118.396792 C56.0589283,123.204226 57.6449533,124.114687 57.93865,120.137613 C57.6449627,124.114673 52.6031333,129.155662 48.29895,129.775473 C52.6031333,129.15565 54.4726467,122.293659 51.8737333,116.656059 C54.4726467,122.293659 56.05894,123.204212 54.9061567,118.39679 L54.9061333,118.396792 Z" id="_311373912"></path>
                                <path d="M45.5431667,110.694624 C45.4052795,115.634855 46.7001873,116.922455 48.01916,113.156469 C46.7001827,116.922455 40.51796,120.494165 36.19917,119.985226 C40.51796,120.494165 44.11008,114.34707 43.0671733,108.232779 C44.110101,114.34707 45.40529,115.634855 45.5431667,110.694624 Z" id="_311373072"></path>
                                <path d="M38.5042,100.845528 C37.0850013,105.581901 38.000697,107.158851 40.255026,103.860623 C38.0006947,107.158851 31.0993527,109.01796 27.0601193,107.414979 C31.0993527,109.017972 36.169126,104.004765 36.7533693,97.8303632 C36.1691167,104.004765 37.0849967,105.581901 38.5041953,100.845551 L38.5042,100.845528 Z" id="_311373480"></path>
                                <path d="M34.2687333,89.52068 C31.6649433,93.7304824 32.1389693,95.4893904 35.1750583,92.8835896 C32.1389717,95.4893904 24.9888683,95.5091104 21.5045717,92.9213123 C24.9888683,95.5091099 31.1909383,91.9713907 33.3625017,86.1577003 C31.1909407,91.9714115 31.664955,93.7304819 34.2687357,89.5207027 L34.2687333,89.52068 Z" id="_311373408"></path>
                                <path d="M33.1256333,77.49148 C29.5147533,80.887728 29.5147533,82.7086496 33.1256333,80.9730344 C29.5147533,82.7086496 22.6031167,80.8877241 19.91115,77.49148 C22.6031167,80.887728 29.5147533,79.0666138 33.1256333,74.0098328 C29.5147533,79.0666208 29.5147533,80.887728 33.1256333,77.49148 Z" id="_311373648"></path>
                                <path d="M35.1526,65.57828 C30.7806333,67.9296 30.3066167,69.688508 34.246275,68.9412824 C30.306605,69.6885242 24.104535,66.1510648 22.3884383,62.1777632 C24.1045397,66.151088 31.2547317,66.1705296 36.058925,62.2153948 C31.2547317,66.1705308 30.7806217,67.9296244 35.1526,65.5783044 L35.1526,65.57828 Z" id="_311373288"></path>
                                <path d="M40.2117333,54.592384 C35.37667,55.7385916 34.4609767,57.3155536 38.4609073,57.607572 C34.4609907,57.3155629 29.3910307,52.302544 28.7676573,48.022956 C29.3910423,52.302544 36.2924707,54.1613744 41.962564,51.577312 C36.2924707,54.1613744 35.376684,55.7386032 40.211738,54.5924072 L40.2117333,54.592384 Z" id="_311372928"></path>
                                <path d="M47.9579333,45.28292 C42.98931,45.1458208 41.69431,46.4333291 45.48194,47.7447648 C41.69431,46.4333245 38.1020733,40.2864288 38.6139367,35.9923176 C38.1020733,40.2864288 44.2844967,43.8580224 50.43402,42.8210752 C44.2844967,43.8580433 42.98931,45.1458312 47.9579333,45.28292 Z" id="_311372760"></path>
                                <path d="M57.8638667,38.284176 C53.1002033,36.873087 51.5141667,37.7835502 54.83135,40.0249973 C51.5141667,37.7835478 49.6443733,30.9216421 51.2565667,26.9054901 C49.6443617,30.9216421 54.68638,35.9624453 60.8962667,36.5433501 C54.68638,35.962436 53.10018,36.8730824 57.8638433,38.2841714 L57.8638667,38.284176 Z" id="_311372328"></path>
                                <path d="M69.2538,34.072912 C65.01971,31.4840008 63.2507867,31.9553181 65.87147,34.974058 C63.2507867,31.9553204 63.23086,24.8460748 65.8336222,21.3816884 C63.2308588,24.8460748 66.7890032,31.0127044 72.6360122,33.1718588 C66.7889822,31.0127067 65.0197088,31.4840124 69.2537755,34.0729143 L69.2538,34.072912 Z" id="_311372880"></path>
                            </g>
                            <g id="Group" transform="translate(46.666667, 0.000000)" fill="#FFA000">
                                <path d="M32.9778167,21.6486392 C33.4857297,20.9213099 34.0587753,20.2883327 34.6854667,19.7972978 C33.6697317,20.593313 33.1179077,21.7602544 32.9778167,23.1016506 L32.9778167,21.6486369 L32.9778167,21.6486392 Z M32.9778167,24.5383152 C33.253591,27.4417024 35.1334853,30.780484 38.18703,32.936344 C35.1333033,30.7804794 33.2535933,29.9199728 32.9778167,30.353024 L32.9778167,24.5383152 Z" id="_311372808"></path>
                                <path d="M32.9777,128.43172 C46.1634133,128.43172 58.6756333,123.278675 67.9977667,114.009533 C77.3200867,104.740669 82.50284,92.2997152 82.50284,79.1893488 C82.50284,66.0790752 77.3200867,53.6380288 67.9977667,44.3691648 C58.67554,35.1000456 46.1633667,29.9467224 32.9777,29.9467224 L32.9777,128.43172 Z" id="_311372160"></path>
                                <path d="M46.6671333,34.951728 C44.3022067,30.604744 42.5332833,30.133436 43.2848033,34.0504892 C42.533267,30.1334244 46.0910567,23.966702 50.0871933,22.2605044 C46.0910333,23.966709 46.0713867,31.076226 50.0493455,35.852874 C46.0713855,31.076226 44.3021822,30.6047324 46.6671088,34.951728 L46.6671333,34.951728 Z" id="_311372040"></path>
                                <path d="M57.7159333,39.98172 C56.5633227,35.1743784 54.9773,34.2638248 54.68351,38.2409892 C54.9772907,34.2638364 60.01912,29.2229404 64.3233033,28.603222 C60.01912,29.2229543 58.1495133,36.0849436 60.7484267,41.7226364 C58.1495133,36.0849436 56.5633133,35.17439 57.71591,39.9817223 L57.7159333,39.98172 Z" id="_311371800"></path>
                                <path d="M67.0789,47.683888 C67.2167872,42.7436568 65.921786,41.4560568 64.603,45.222136 C65.921793,41.4560568 72.1041067,37.8842776 76.42299,38.3933088 C72.10413,37.8842799 68.5119867,44.0314656 69.5549867,50.1458488 C68.511968,44.0314656 67.2167767,42.74368 67.0789,47.6839112 L67.0789,47.683888 Z" id="_311372016"></path>
                                <path d="M74.1181,57.533216 C75.5372987,52.7968432 74.621512,51.2198928 72.367274,54.518028 C74.621512,51.2198928 81.5229473,49.360784 85.5621807,50.9635792 C81.5229473,49.3607701 76.4530807,54.3738864 75.8688373,60.5483808 C76.45309,54.3738864 75.537301,52.7968432 74.1181023,57.5331928 L74.1181,57.533216 Z" id="_311370768"></path>
                                <path d="M78.3535667,68.858064 C80.9573567,64.6481688 80.4833307,62.8893536 77.4472417,65.4951544 C80.4833283,62.8893536 87.6334317,62.8696336 91.1177283,65.4575228 C87.6334317,62.8696324 81.4313617,66.4074445 79.259705,72.2209724 C81.4313593,66.4074468 80.9573427,64.6481908 78.3535643,68.8580628 L78.3535667,68.858064 Z" id="_311371200"></path>
                                <path d="M79.4966667,80.887032 C83.1075467,77.490784 83.1075467,75.6697696 79.4966667,77.4055704 C83.1075467,75.6697719 90.0191833,77.4907893 92.71115,80.887032 C90.0191833,77.490784 83.1075467,79.3118982 79.4966667,84.3686792 C83.1075467,79.3118912 83.1075467,77.490784 79.4966667,80.887032 Z" id="_311370864"></path>
                                <path d="M77.4697,92.800464 C81.8416667,90.449144 82.3156833,88.690236 78.376025,89.4375544 C82.315695,88.6902221 88.517765,92.227772 90.2338617,96.2010736 C88.5177603,92.2277488 81.367475,92.2082144 76.563375,96.1633509 C81.367475,92.2082149 81.8416783,90.4491213 77.4697,92.8004413 L77.4697,92.800464 Z" id="_311371296"></path>
                                <path d="M72.4105667,103.786128 C77.2455367,102.640011 78.16123,101.062958 74.1613017,100.77094 C78.1612183,101.062949 83.2311783,106.076061 83.8544583,110.355556 C83.2311643,106.076061 76.3297383,104.217138 70.6595517,106.801293 C76.3297383,104.217138 77.245525,102.640002 72.410562,103.786105 L72.4105667,103.786128 Z" id="_311371056"></path>
                                <path d="M64.6643667,113.095824 C69.63299,113.232923 70.92799,111.945322 67.1402667,110.633794 C70.92799,111.945324 74.5202033,118.092222 74.00834,122.386426 C74.5202033,118.092246 68.33778,114.520722 62.1881633,115.557599 C68.33778,114.520724 69.6329667,113.232936 64.6643433,113.095847 L64.6643667,113.095824 Z" id="_311370000"></path>
                                <path d="M54.7584333,120.094568 C59.5220267,121.50575 61.10804,120.595194 57.7908567,118.353654 C61.10804,120.595194 62.9778333,127.457102 61.3657333,131.473068 C62.9778473,127.457102 57.9358267,122.416206 51.72594,121.835301 C57.9358267,122.416215 59.5220267,121.505752 54.7584567,120.09457 L54.7584333,120.094568 Z" id="_311370432"></path>
                                <path d="M43.3685,124.3056 C47.60259,126.894511 49.3716067,126.423377 46.7507367,123.404637 C49.3716067,126.423375 49.39144,133.532435 46.7886762,136.997007 C49.3914395,133.532435 45.8332042,127.365991 39.9862862,125.206744 C45.8332229,127.365989 47.6025895,126.894497 43.3685229,124.305598 L43.3685,124.3056 Z" id="_311370168"></path>
                                <path d="M32.9777,127.055496 C35.2373583,128.911406 36.1972333,128.374152 34.7717953,125.442456 C36.1972427,128.374147 35.2373607,133.49332 32.9777,136.730346 L32.9777,135.277149 C33.0258364,134.816163 33.0246422,134.334535 32.9777,133.840484 L32.9777,128.025776 C33.0246422,127.952065 33.0258364,127.841637 32.9777,127.692937 L32.9777,127.055484 L32.9777,127.055496 Z" id="_311370048"></path>
                            </g>
                        </g>
                    </g>
                    <rect id="Rectangle" x="0" y="0" width="159.288733" height="158.378512"></rect>
                </g>
            </g>
        </g>
        <path d="M30.617,72.798 C30.1923312,72.529332 29.7525023,72.327834 29.2975,72.1935 C28.8424977,72.059166 28.4243352,71.992 28.043,71.992 C27.5143307,71.992 27.0918349,72.0938323 26.7755,72.2975 C26.4591651,72.5011677 26.301,72.7806649 26.301,73.136 C26.301,73.4566683 26.3963324,73.7188323 26.587,73.9225 C26.7776676,74.1261677 27.0116653,74.2864994 27.289,74.4035 C27.5663347,74.5205006 27.9519975,74.6569992 28.446,74.813 C29.0613364,75.0036676 29.5596648,75.1856658 29.941,75.359 C30.3223352,75.5323342 30.647332,75.790165 30.916,76.1325 C31.184668,76.474835 31.319,76.9276639 31.319,77.491 C31.319,78.0110026 31.1781681,78.465998 30.8965,78.856 C30.6148319,79.2460019 30.2205025,79.5471656 29.7135,79.7595 C29.2064975,79.9718344 28.62367,80.078 27.965,80.078 C27.2976633,80.078 26.6476698,79.9480013 26.015,79.688 C25.3823302,79.4279987 24.8363356,79.0813355 24.377,78.648 L24.936,77.569 C25.3693355,77.9936688 25.8568306,78.3208322 26.3985,78.5505 C26.9401694,78.7801678 27.4666641,78.895 27.978,78.895 C28.5846697,78.895 29.0634982,78.7758345 29.4145,78.5375 C29.7655018,78.2991655 29.941,77.9763354 29.941,77.569 C29.941,77.2483317 29.8456676,76.984001 29.655,76.776 C29.4643324,76.567999 29.2238348,76.4033339 28.9335,76.282 C28.6431652,76.1606661 28.2510025,76.0263341 27.757,75.879 C27.1503303,75.6969991 26.6563352,75.5193342 26.275,75.346 C25.8936648,75.1726658 25.5708347,74.9170017 25.3065,74.579 C25.0421653,74.2409983 24.91,73.7946694 24.91,73.24 C24.91,72.7546642 25.044332,72.3256685 25.313,71.953 C25.581668,71.5803315 25.9586642,71.2943343 26.444,71.095 C26.9293358,70.8956657 27.4926635,70.796 28.134,70.796 C28.6800027,70.796 29.215164,70.8761659 29.7395,71.0365 C30.263836,71.1968341 30.7296646,71.411332 31.137,71.68 L30.617,72.798 Z M36.9795713,73.084 C37.6642414,73.084 38.2730686,73.2313319 38.8060713,73.526 C39.3390739,73.8206681 39.7550698,74.230164 40.0540713,74.7545 C40.3530728,75.278836 40.5025713,75.8789966 40.5025713,76.555 C40.5025713,77.2310034 40.3530728,77.8333307 40.0540713,78.362 C39.7550698,78.8906693 39.3390739,79.3023319 38.8060713,79.597 C38.2730686,79.8916681 37.6642414,80.039 36.9795713,80.039 C36.2862345,80.039 35.6730739,79.8916681 35.1400713,79.597 C34.6070686,79.3023319 34.1910728,78.892836 33.8920713,78.3685 C33.5930698,77.844164 33.4435713,77.2396701 33.4435713,76.555 C33.4435713,75.8789966 33.5930698,75.278836 33.8920713,74.7545 C34.1910728,74.230164 34.6070686,73.8206681 35.1400713,73.526 C35.6730739,73.2313319 36.2862345,73.084 36.9795713,73.084 Z M36.9795713,74.137 C36.5289024,74.137 36.128073,74.240999 35.7770713,74.449 C35.4260695,74.657001 35.1530723,74.9451648 34.9580713,75.3135 C34.7630703,75.6818352 34.6655713,76.0999977 34.6655713,76.568 C34.6655713,77.044669 34.7630703,77.4693315 34.9580713,77.842 C35.1530723,78.2146685 35.4260695,78.5028323 35.7770713,78.7065 C36.128073,78.9101677 36.5289024,79.012 36.9795713,79.012 C37.4215735,79.012 37.8180695,78.9101677 38.1690713,78.7065 C38.520073,78.5028323 38.7930703,78.2146685 38.9880713,77.842 C39.1830723,77.4693315 39.2805713,77.044669 39.2805713,76.568 C39.2805713,76.0999977 39.1830723,75.6818352 38.9880713,75.3135 C38.7930703,74.9451648 38.520073,74.657001 38.1690713,74.449 C37.8180695,74.240999 37.4215735,74.137 36.9795713,74.137 Z M43.1861426,70.354 L44.3951426,70.354 L44.3951426,80 L43.1861426,80 L43.1861426,70.354 Z M51.9537139,80 L51.9537139,79.038 C51.442378,79.7140034 50.6407193,80.052 49.5487139,80.052 C49.0720448,80.052 48.6538823,79.9610009 48.2942139,79.779 C47.9345454,79.5969991 47.6572148,79.3456683 47.4622139,79.025 C47.2672129,78.7043317 47.1697139,78.3446687 47.1697139,77.946 C47.1697139,77.3306636 47.3972116,76.8431685 47.8522139,76.4835 C48.3072161,76.1238315 48.9420431,75.9396667 49.7567139,75.931 L51.9407139,75.931 L51.9407139,75.606 C51.9407139,75.1206642 51.7912153,74.7458347 51.4922139,74.4815 C51.1932124,74.2171653 50.7577167,74.085 50.1857139,74.085 C49.4923771,74.085 48.7860508,74.3319975 48.0667139,74.826 L47.5597139,73.994 C48.0537163,73.6733317 48.5108784,73.4415007 48.9312139,73.2985 C49.3515493,73.1554993 49.8520443,73.084 50.4327139,73.084 C51.2907181,73.084 51.9537115,73.2941646 52.4217139,73.7145 C52.8897162,74.1348354 53.1280471,74.7219962 53.1367139,75.476 L53.1497139,80 L51.9537139,80 Z M49.7957139,79.051 C50.35905,79.051 50.8378785,78.9145014 51.2322139,78.6415 C51.6265492,78.3684986 51.8627135,78.0066689 51.9407139,77.556 L51.9407139,76.867 L49.9257139,76.867 C49.3797111,76.867 48.9745485,76.9493325 48.7102139,77.114 C48.4458792,77.2786675 48.3137139,77.5386649 48.3137139,77.894 C48.3137139,78.2493351 48.4480458,78.530999 48.7167139,78.739 C48.9853819,78.947001 49.3450449,79.051 49.7957139,79.051 Z M57.4452851,74.605 C57.6706196,74.1109975 57.9912831,73.7361679 58.4072851,73.4805 C58.8232872,73.2248321 59.3172823,73.0926667 59.8892851,73.084 L59.8892851,74.254 C59.1872816,74.2279999 58.6196206,74.409998 58.1862851,74.8 C57.7529496,75.1900019 57.5059521,75.71433 57.4452851,76.373 L57.4452851,80 L56.2362851,80 L56.2362851,73.123 L57.4452851,73.123 L57.4452851,74.605 Z M65.7578564,70.9 C66.8931954,70.9 67.7706867,71.168664 68.3903564,71.706 C69.0100262,72.243336 69.3198564,72.9973285 69.3198564,73.968 C69.3198564,74.9820051 69.0078595,75.7684972 68.3838564,76.3275 C67.7598533,76.8865028 66.8845287,77.166 65.7578564,77.166 L63.4958564,77.166 L63.4958564,80 L62.2478564,80 L62.2478564,70.9 L65.7578564,70.9 Z M65.7058564,76.035 C66.4858603,76.035 67.0838543,75.863835 67.4998564,75.5215 C67.9158585,75.179165 68.1238564,74.6743367 68.1238564,74.007 C68.1238564,73.3569968 67.9158585,72.8651683 67.4998564,72.5315 C67.0838543,72.1978317 66.4858603,72.031 65.7058564,72.031 L63.4958564,72.044 L63.4958564,76.035 L65.7058564,76.035 Z M71.7824277,73.123 L72.9914277,73.123 L72.9914277,80 L71.7824277,80 L71.7824277,73.123 Z M72.3804277,70.38 C72.5970955,70.38 72.776927,70.4536659 72.9199277,70.601 C73.0629284,70.7483341 73.1344277,70.9346655 73.1344277,71.16 C73.1344277,71.3853345 73.0629284,71.5716659 72.9199277,71.719 C72.776927,71.8663341 72.5970955,71.94 72.3804277,71.94 C72.16376,71.94 71.9839284,71.8663341 71.8409277,71.719 C71.697927,71.5716659 71.6264277,71.3853345 71.6264277,71.16 C71.6264277,70.9346655 71.697927,70.7483341 71.8409277,70.601 C71.9839284,70.4536659 72.16376,70.38 72.3804277,70.38 Z" id="SolarPi" fill="#000000"></path>
    </g>
</svg>